<svg xmlns="http://www.w3.org/2000/svg" version="1.1" xmlns:xlink="http://www.w3.org/1999/xlink" xmlns:svgjs="http://svgjs.dev/svgjs" width="1920" height="1080" preserveAspectRatio="none" viewBox="0 0 1920 1080"><g mask="url(&quot;#SvgjsMask1202&quot;)" fill="none"><rect width="1920" height="1080" x="0" y="0" fill="url(&quot;#SvgjsLinearGradient1203&quot;)"></rect><path d="M-152.34 946.05 a197.21 197.21 0 1 0 394.42 0 a197.21 197.21 0 1 0 -394.42 0z" fill="rgba(145, 179, 255, 0.2)" class="triangle-float1"></path><path d="M1421.3212416715135 340.4435810830557L1592.1584470351963 322.48786725838045 1574.2027332105213 151.6506618946975 1403.3655278468382 169.6063757193727z" fill="rgba(145, 179, 255, 0.2)" class="triangle-float3"></path><path d="M982.26 423.99 a306.15 306.15 0 1 0 612.3 0 a306.15 306.15 0 1 0 -612.3 0z" fill="rgba(145, 179, 255, 0.2)" class="triangle-float1"></path><path d="M1960.527,1150.292C2041.953,1155.236,2114.237,1102.132,2155.789,1031.932C2198.198,960.284,2214.353,868.604,2168.324,799.226C2125.516,734.703,2037.808,732.794,1960.527,737.621C1893.633,741.799,1826.902,764.657,1793.3,822.649C1759.618,880.779,1771.886,950.637,1802.428,1010.476C1836.706,1077.636,1885.264,1145.722,1960.527,1150.292" fill="rgba(145, 179, 255, 0.2)" class="triangle-float3"></path><path d="M960.8628166893313 909.5471650380721L776.3125890552974 1016.0972886415883 1067.4129402928475 1094.097392672106z" fill="rgba(145, 179, 255, 0.2)" class="triangle-float3"></path><path d="M90.84872480732139 664.410946993364L6.953918960970896 908.0591547128363 250.60212668044326 991.9539605591868 334.4969325267938 748.3057528397144z" fill="rgba(145, 179, 255, 0.2)" class="triangle-float2"></path></g><defs><mask id="SvgjsMask1202"><rect width="1920" height="1080" fill="#ffffff"></rect></mask><linearGradient x1="10.94%" y1="-19.44%" x2="89.06%" y2="119.44%" gradientUnits="userSpaceOnUse" id="SvgjsLinearGradient1203"><stop stop-color="rgba(22, 73, 126, 1)" offset="0"></stop><stop stop-color="rgba(0, 98, 225, 1)" offset="1"></stop></linearGradient><style>
                @keyframes float1 {
                    0%{transform: translate(0, 0)}
                    50%{transform: translate(-10px, 0)}
                    100%{transform: translate(0, 0)}
                }

                .triangle-float1 {
                    animation: float1 5s infinite;
                }

                @keyframes float2 {
                    0%{transform: translate(0, 0)}
                    50%{transform: translate(-5px, -5px)}
                    100%{transform: translate(0, 0)}
                }

                .triangle-float2 {
                    animation: float2 4s infinite;
                }

                @keyframes float3 {
                    0%{transform: translate(0, 0)}
                    50%{transform: translate(0, -10px)}
                    100%{transform: translate(0, 0)}
                }

                .triangle-float3 {
                    animation: float3 6s infinite;
                }
            </style></defs></svg>